<svg width="33" height="32" viewBox="0 0 33 32" fill="none" xmlns="http://www.w3.org/2000/svg">
<g id="Instagram_white">
<g id="Instagram">
<path id="Combined-Shape" fill-rule="evenodd" clip-rule="evenodd" d="M16.359 0C7.57907 0 0.461548 7.11752 0.461548 15.8974C0.461548 24.6773 7.57907 31.7949 16.359 31.7949C25.1389 31.7949 32.2564 24.6773 32.2564 15.8974C32.2564 7.11752 25.1389 0 16.359 0ZM12.8638 7.47015C13.7682 7.429 14.0571 7.41893 16.3598 7.41893H16.3572C18.6606 7.41893 18.9485 7.429 19.8529 7.47015C20.7555 7.51149 21.372 7.65439 21.9125 7.86406C22.4707 8.08044 22.9423 8.37013 23.4139 8.84176C23.8856 9.31304 24.1753 9.78608 24.3925 10.3437C24.601 10.8828 24.744 11.499 24.7864 12.4016C24.8271 13.306 24.8377 13.595 24.8377 15.8976C24.8377 18.2003 24.8271 18.4886 24.7864 19.393C24.744 20.2953 24.601 20.9116 24.3925 21.4509C24.1753 22.0083 23.8856 22.4814 23.4139 22.9526C22.9428 23.4243 22.4705 23.7147 21.913 23.9312C21.3736 24.1409 20.7567 24.2838 19.8541 24.3251C18.9497 24.3663 18.6616 24.3764 16.3588 24.3764C14.0563 24.3764 13.7674 24.3663 12.863 24.3251C11.9606 24.2838 11.3443 24.1409 10.8048 23.9312C10.2475 23.7147 9.7745 23.4243 9.3034 22.9526C8.83195 22.4814 8.54226 22.0083 8.32552 21.4507C8.11603 20.9116 7.97313 20.2955 7.93162 19.3928C7.89064 18.4884 7.88039 18.2003 7.88039 15.8976C7.88039 13.595 7.89099 13.3058 7.93144 12.4014C7.97207 11.4991 8.11514 10.8828 8.32535 10.3436C8.54261 9.78608 8.8323 9.31304 9.30393 8.84176C9.77521 8.37031 10.2482 8.08062 10.8059 7.86406C11.345 7.65439 11.9611 7.51149 12.8638 7.47015Z" fill="#060368"/>
<path id="Combined-Shape_2" fill-rule="evenodd" clip-rule="evenodd" d="M15.5992 8.94676C15.7469 8.94653 15.9057 8.9466 16.0772 8.94668L16.3598 8.94676C18.6236 8.94676 18.8919 8.95489 19.7859 8.99551C20.6126 9.03331 21.0612 9.17145 21.3601 9.2875C21.7558 9.44118 22.0379 9.62488 22.3345 9.92164C22.6312 10.2184 22.8149 10.501 22.9689 10.8967C23.085 11.1952 23.2233 11.6439 23.2609 12.4706C23.3016 13.3644 23.3104 13.6328 23.3104 15.8956C23.3104 18.1584 23.3016 18.4269 23.2609 19.3207C23.2231 20.1473 23.085 20.596 22.9689 20.8945C22.8153 21.2902 22.6312 21.5719 22.3345 21.8685C22.0377 22.1653 21.756 22.349 21.3601 22.5026C21.0616 22.6192 20.6126 22.757 19.7859 22.7948C18.8921 22.8354 18.6236 22.8443 16.3598 22.8443C14.0958 22.8443 13.8275 22.8354 12.9337 22.7948C12.107 22.7567 11.6583 22.6185 11.3593 22.5025C10.9636 22.3488 10.681 22.1651 10.3842 21.8683C10.0875 21.5716 9.90377 21.2897 9.74974 20.8938C9.63368 20.5953 9.49537 20.1466 9.45775 19.3199C9.41712 18.4261 9.409 18.1577 9.409 15.8935C9.409 13.6293 9.41712 13.3622 9.45775 12.4684C9.49555 11.6418 9.63368 11.1931 9.74974 10.8942C9.90341 10.4985 10.0875 10.2159 10.3842 9.91916C10.681 9.62241 10.9636 9.4387 11.3593 9.28467C11.6582 9.16809 12.107 9.03031 12.9337 8.99233C13.7158 8.95701 14.0189 8.94641 15.5992 8.94464V8.94676ZM20.8856 10.3547C20.3239 10.3547 19.8682 10.8099 19.8682 11.3718C19.8682 11.9335 20.3239 12.3892 20.8856 12.3892C21.4473 12.3892 21.9031 11.9335 21.9031 11.3718C21.9031 10.8101 21.4473 10.3543 20.8856 10.3543V10.3547ZM12.0056 15.8975C12.0056 13.493 13.9551 11.5434 16.3596 11.5434C18.7642 11.5434 20.7133 13.4929 20.7133 15.8975C20.7133 18.3021 18.7644 20.2508 16.3598 20.2508C13.9552 20.2508 12.0056 18.3021 12.0056 15.8975Z" fill="#060368"/>
<path id="Shape" d="M16.3598 13.0714C17.9206 13.0714 19.1861 14.3366 19.1861 15.8976C19.1861 17.4584 17.9206 18.7238 16.3598 18.7238C14.7988 18.7238 13.5336 17.4584 13.5336 15.8976C13.5336 14.3366 14.7988 13.0714 16.3598 13.0714Z" fill="#060368"/>
</g>
</g>
</svg>
