<svg width="142" height="35" viewBox="0 0 142 35" fill="none" xmlns="http://www.w3.org/2000/svg">
<g id="Logo" clip-path="url(#clip0_2_581)">
<path id="Vector" d="M42.7513 24.4473H52.7158V21.4459H46.2929V10.1407H42.7513V24.4473Z" fill="#2F234F"/>
<path id="Vector_2" d="M58.6194 22.4463C57.1987 22.4463 56.4584 21.2058 56.4584 19.3449C56.4584 17.4841 57.1987 16.2235 58.6194 16.2235C60.0401 16.2235 60.8004 17.4841 60.8004 19.3449C60.8004 21.2058 60.0401 22.4463 58.6194 22.4463ZM58.6394 24.7674C61.9409 24.7674 64.1019 22.4263 64.1019 19.3449C64.1019 16.2635 61.9409 13.9224 58.6394 13.9224C55.3579 13.9224 53.1569 16.2635 53.1569 19.3449C53.1569 22.4263 55.3579 24.7674 58.6394 24.7674Z" fill="#2F234F"/>
<path id="Vector_3" d="M69.8161 27.9889C71.3368 27.9889 72.6774 27.6487 73.5778 26.8483C74.3982 26.108 74.9384 24.9875 74.9384 23.4468V14.2025H71.817V15.303H71.777C71.1767 14.4427 70.2563 13.9024 68.8957 13.9024C66.3545 13.9024 64.5937 16.0234 64.5937 19.0248C64.5937 22.1662 66.7347 23.887 69.0357 23.887C70.2763 23.887 71.0567 23.3868 71.6569 22.7064H71.737V23.7269C71.737 24.9675 71.1567 25.6878 69.7761 25.6878C68.6956 25.6878 68.1553 25.2276 67.9752 24.6874H64.8138C65.1339 26.8283 66.9948 27.9889 69.8161 27.9889ZM69.7961 21.4659C68.5755 21.4659 67.7752 20.4654 67.7752 18.9247C67.7752 17.364 68.5755 16.3635 69.7961 16.3635C71.1567 16.3635 71.877 17.5241 71.877 18.9047C71.877 20.3454 71.2167 21.4659 69.7961 21.4659Z" fill="#2F234F"/>
<path id="Vector_4" d="M81.3573 22.4463C79.9367 22.4463 79.1963 21.2058 79.1963 19.3449C79.1963 17.4841 79.9367 16.2235 81.3573 16.2235C82.778 16.2235 83.538 17.4841 83.538 19.3449C83.538 21.2058 82.778 22.4463 81.3573 22.4463ZM81.3773 24.7674C84.6785 24.7674 86.8395 22.4263 86.8395 19.3449C86.8395 16.2635 84.6785 13.9224 81.3773 13.9224C78.0958 13.9224 75.8948 16.2635 75.8948 19.3449C75.8948 22.4263 78.0958 24.7674 81.3773 24.7674Z" fill="#2F234F"/>
<path id="Vector_5" d="M87.7922 24.4473H91.0537V14.2026H87.7922V24.4473ZM87.7922 12.782H91.0537V10.1407H87.7922V12.782Z" fill="#2F234F"/>
<path id="Vector_6" d="M92.469 27.8288H95.7305V23.3868H95.7705C96.4108 24.2472 97.3513 24.7674 98.6719 24.7674C101.353 24.7674 103.134 22.6464 103.134 19.3249C103.134 16.2435 101.473 13.9024 98.7519 13.9024C97.3513 13.9024 96.3508 14.5227 95.6505 15.4431H95.5905V14.2025H92.469V27.8288ZM97.8315 22.2462C96.4308 22.2462 95.6305 21.1057 95.6305 19.4449C95.6305 17.7842 96.3508 16.5236 97.7715 16.5236C99.1721 16.5236 99.8324 17.6841 99.8324 19.4449C99.8324 21.1857 99.0721 22.2462 97.8315 22.2462Z" fill="#2F234F"/>
<path id="Vector_7" d="M108.443 24.7674C111.125 24.7674 113.106 23.6069 113.106 21.3658C113.106 18.7446 110.985 18.2844 109.184 17.9843C107.883 17.7442 106.723 17.6441 106.723 16.9238C106.723 16.2835 107.343 15.9834 108.143 15.9834C109.044 15.9834 109.664 16.2635 109.784 17.1839H112.785C112.625 15.163 111.065 13.9024 108.163 13.9024C105.742 13.9024 103.741 15.0229 103.741 17.1839C103.741 19.585 105.642 20.0652 107.423 20.3654C108.784 20.6055 110.024 20.7055 110.024 21.6259C110.024 22.2863 109.404 22.6464 108.423 22.6464C107.343 22.6464 106.663 22.1462 106.543 21.1257H103.461C103.561 23.3868 105.442 24.7674 108.443 24.7674Z" fill="#2F234F"/>
<path id="Vector_8" d="M117.536 24.7474C118.957 24.7474 119.857 24.1872 120.597 23.1867H120.657V24.4473H123.779V14.2026H120.517V19.9252C120.517 21.1458 119.837 21.9861 118.717 21.9861C117.676 21.9861 117.176 21.3659 117.176 20.2453V14.2026H113.934V20.9257C113.934 23.2067 115.175 24.7474 117.536 24.7474Z" fill="#2F234F"/>
<path id="Vector_9" d="M125.197 24.4472H128.459V18.7046C128.459 17.484 129.059 16.6237 130.08 16.6237C131.06 16.6237 131.52 17.2639 131.52 18.3645V24.4472H134.782V18.7046C134.782 17.484 135.362 16.6237 136.402 16.6237C137.383 16.6237 137.843 17.2639 137.843 18.3645V24.4472H141.105V17.7842C141.105 15.4831 139.944 13.9024 137.623 13.9024C136.302 13.9024 135.202 14.4627 134.401 15.7032H134.361C133.841 14.6027 132.821 13.9024 131.48 13.9024C129.999 13.9024 129.019 14.6027 128.379 15.6632H128.319V14.2025H125.197V24.4472Z" fill="#2F234F"/>
<path id="Vector_10" fill-rule="evenodd" clip-rule="evenodd" d="M16.7588 33.6181C25.9678 33.6181 33.4331 26.1528 33.4331 16.9438C33.4331 7.73487 25.9678 0.269531 16.7588 0.269531C7.54981 0.269531 0.0844727 7.73487 0.0844727 16.9438C0.0844727 26.1528 7.54981 33.6181 16.7588 33.6181ZM19.3324 13.1526C20.7538 11.7312 20.7538 9.4267 19.3324 8.0053C17.911 6.58391 15.6066 6.58391 14.1852 8.0053C12.7638 9.4267 12.7638 11.7312 14.1852 13.1526L16.7588 15.7262L19.3324 13.1526ZM20.5501 19.5175C21.9715 20.9389 24.276 20.9389 25.6974 19.5175C27.1187 18.0961 27.1187 15.7916 25.6974 14.3702C24.276 12.9489 21.9715 12.9489 20.5501 14.3702L17.9765 16.9439L20.5501 19.5175ZM19.3324 25.8824C20.7538 24.461 20.7538 22.1565 19.3324 20.7351L16.7588 18.1615L14.1852 20.7351C12.7638 22.1565 12.7638 24.461 14.1852 25.8824C15.6066 27.3038 17.911 27.3038 19.3324 25.8824ZM7.82021 19.5175C6.39886 18.0961 6.39886 15.7916 7.82021 14.3702C9.24164 12.9489 11.5461 12.9489 12.9675 14.3702L15.5411 16.9439L12.9675 19.5175C11.5461 20.9389 9.24164 20.9389 7.82021 19.5175Z" fill="#7F57F1"/>
</g>
<defs>
<clipPath id="clip0_2_581">
<rect width="141.732" height="34.1824" fill="white"/>
</clipPath>
</defs>
</svg>
