<svg width="35" height="32" viewBox="0 0 35 32" fill="none" xmlns="http://www.w3.org/2000/svg">
<g id="Mail_white">
<g id="Mail">
<path id="Combined-Shape" fill-rule="evenodd" clip-rule="evenodd" d="M17.4872 31.7949C8.26829 31.7949 0.794891 24.6773 0.794891 15.8974C0.794891 7.11752 8.26829 0 17.4872 0C26.7061 0 34.1795 7.11752 34.1795 15.8974C34.1795 24.6773 26.7061 31.7949 17.4872 31.7949ZM17.7197 15.0052C19.0865 15.0052 25.732 11.4461 25.732 11.4461L25.7427 10.8102C25.7427 10.1082 25.1444 9.53846 24.4053 9.53846H11.0341C10.2956 9.53846 9.69738 10.1082 9.69738 10.8102V11.3768C9.69738 11.3768 16.4157 15.0052 17.7197 15.0052ZM9.70807 13.3539C9.7074 13.3539 16.4157 16.754 17.7197 16.754C19.1492 16.754 25.732 13.3539 25.732 13.3539L25.7427 20.9846C25.7427 21.6867 25.1444 22.2564 24.4053 22.2564H11.0341C10.2963 22.2564 9.69738 21.6867 9.69738 20.9846L9.70807 13.3539Z" fill="#060368"/>
</g>
</g>
</svg>
