<svg width="33" height="32" viewBox="0 0 33 32" fill="none" xmlns="http://www.w3.org/2000/svg">
<g id="Twitter_white">
<g id="Twitter">
<path id="Combined-Shape" fill-rule="evenodd" clip-rule="evenodd" d="M16.4103 0C7.63034 0 0.512817 7.11752 0.512817 15.8974C0.512817 24.6773 7.63034 31.7949 16.4103 31.7949C25.1902 31.7949 32.3077 24.6773 32.3077 15.8974C32.3077 7.11752 25.1902 0 16.4103 0ZM15.9675 13.4717L15.9341 12.9216C15.8341 11.4959 16.7125 10.1936 18.1025 9.68846C18.614 9.50884 19.4814 9.48639 20.0485 9.64356C20.2709 9.71092 20.6935 9.93544 20.9937 10.1375L21.5386 10.508L22.1391 10.3171C22.4727 10.2161 22.9175 10.0477 23.1176 9.93544C23.3067 9.8344 23.4735 9.77827 23.4735 9.81195C23.4735 10.0028 23.062 10.6539 22.7173 11.0132C22.2503 11.5183 22.3837 11.5632 23.3289 11.2265C23.896 11.0356 23.9071 11.0356 23.7959 11.2489C23.7292 11.3612 23.3845 11.7541 23.0175 12.1133C22.3948 12.7308 22.3615 12.7981 22.3615 13.3145C22.3615 14.1116 21.9834 15.7731 21.6053 16.6824C20.9047 18.3888 19.4036 20.1513 17.9024 21.0382C15.7896 22.2843 12.9762 22.5987 10.6077 21.869C9.81818 21.622 8.46155 20.9933 8.46155 20.8811C8.46155 20.8474 8.87299 20.8025 9.37339 20.7912C10.4187 20.7688 11.4639 20.4769 12.3535 19.9605L12.954 19.6013L12.2646 19.3655C11.286 19.0287 10.4075 18.2541 10.1851 17.5244C10.1184 17.2886 10.1407 17.2774 10.7634 17.2774L11.4083 17.2662L10.8635 17.008C10.2185 16.6824 9.62915 16.1323 9.34003 15.571C9.12875 15.1669 8.86187 14.1453 8.93971 14.0667C8.96195 14.033 9.19547 14.1004 9.46235 14.1902C10.2296 14.4709 10.3297 14.4035 9.8849 13.932C9.05091 13.0788 8.79515 11.8102 9.19547 10.609L9.38451 10.0702L10.1184 10.7999C11.6196 12.2705 13.3877 13.1462 15.4115 13.4044L15.9675 13.4717Z" fill="#060368"/>
</g>
</g>
</svg>
